<?xml version="1.0" encoding="UTF-8" standalone="no"?>
<svg width="118px" height="118px" viewBox="0 0 118 118" version="1.1" xmlns="http://www.w3.org/2000/svg" xmlns:xlink="http://www.w3.org/1999/xlink">
    <!-- Generator: sketchtool 46 (44423) - http://www.bohemiancoding.com/sketch -->
    <title>F59147DC-9A43-4D0A-A2A7-A0334CC6D5AC</title>
    <desc>Created with sketchtool.</desc>
    <defs></defs>
    <g id="6--App-movil" stroke="none" stroke-width="1" fill="none" fill-rule="evenodd">
        <g id="6.5-Cerrar-sesion" transform="translate(-102.000000, -123.000000)">
            <g id="Cerrar-sesion-app" transform="translate(103.000000, 124.000000)">
                <g id="Group-5">
                    <path d="M47.5651912,111.743505 L4.25681547,68.4344884 C-1.41885304,62.7588199 -1.41885304,53.5570077 4.25681547,47.8813392 L47.5651912,4.57232265 C53.2408597,-1.10270497 62.4433127,-1.10270497 68.1183403,4.57232265 L111.427357,47.8813392 C117.103025,53.5570077 117.103025,62.7588199 111.427357,68.4344884 L68.1183403,111.743505 C62.4433127,117.418533 53.2408597,117.418533 47.5651912,111.743505" id="Fill-1" fill="#CDFFFF"></path>
                    <path d="M47.5651912,111.743505 L4.25681547,68.4344884 C-1.41885304,62.7588199 -1.41885304,53.5570077 4.25681547,47.8813392 L47.5651912,4.57232265 C53.2408597,-1.10270497 62.4433127,-1.10270497 68.1183403,4.57232265 L111.427357,47.8813392 C117.103025,53.5570077 117.103025,62.7588199 111.427357,68.4344884 L68.1183403,111.743505 C62.4433127,117.418533 53.2408597,117.418533 47.5651912,111.743505 Z" id="Stroke-3" stroke="#555554" stroke-width="2" stroke-linecap="round" stroke-linejoin="round"></path>
                </g>
                <g id="Group-20" transform="translate(26.000000, 32.000000)">
                    <path d="M51.2115429,48.2327673 C49.2591857,48.2327673 47.6758286,46.6476683 47.6758286,44.6931634 C47.6758286,42.7386584 49.2591857,41.1535594 51.2115429,41.1535594 C53.6679,41.1535594 55.6665429,39.1533614 55.6665429,36.6936584 L55.6665429,11.6628663 C55.6665429,9.20316337 53.6679,7.20296535 51.2115429,7.20296535 L12.1149,7.20296535 C9.6579,7.20296535 7.6599,9.20316337 7.6599,11.6628663 L7.6599,36.6936584 C7.6599,39.1533614 9.6579,41.1535594 12.1149,41.1535594 C14.0672571,41.1535594 15.6506143,42.7386584 15.6506143,44.6931634 C15.6506143,46.6476683 14.0672571,48.2327673 12.1149,48.2327673 C5.75897143,48.2327673 0.588471429,43.0565792 0.588471429,36.6936584 L0.588471429,11.6628663 C0.588471429,5.29994554 5.75897143,0.123757426 12.1149,0.123757426 L51.2115429,0.123757426 C57.5674714,0.123757426 62.7379714,5.29994554 62.7379714,11.6628663 L62.7379714,36.6936584 C62.7379714,43.0565792 57.5674714,48.2327673 51.2115429,48.2327673" id="Fill-6" fill="#00E5F0"></path>
                    <path d="M12.1146429,7.2030297 C9.65828571,7.2030297 7.65964286,9.20322772 7.65964286,11.6629307 L7.65964286,36.6937228 C7.65964286,39.1534257 9.65828571,41.1536238 12.1146429,41.1536238 C14.067,41.1536238 15.6503571,42.7387228 15.6503571,44.6932277 C15.6503571,46.6477327 14.067,48.2328317 12.1146429,48.2328317 C5.75871429,48.2328317 0.588214286,43.0566436 0.588214286,36.6937228 L0.588214286,19.7049109" id="Stroke-8" stroke="#555554" stroke-width="2" stroke-linecap="round" stroke-linejoin="round"></path>
                    <path d="M55.66635,27.7178663 L55.66635,11.6628663 C55.66635,9.20316337 53.66835,7.20296535 51.21135,7.20296535 L18.0791357,7.20296535" id="Stroke-10" stroke="#555554" stroke-width="2" stroke-linecap="round" stroke-linejoin="round"></path>
                    <path d="M0.588471429,15.7007178 L0.588471429,11.662995 C0.588471429,5.30007426 5.75897143,0.123886139 12.1149,0.123886139 L51.2115429,0.123886139 C57.5674714,0.123886139 62.7379714,5.30007426 62.7379714,11.662995 L62.7379714,36.6937871 C62.7379714,43.0567079 57.5674714,48.232896 51.2115429,48.232896 C49.2591857,48.232896 47.6758286,46.647797 47.6758286,44.6932921 C47.6758286,42.7387871 49.2591857,41.1536881 51.2115429,41.1536881 C53.6679,41.1536881 55.6665429,39.1528465 55.6665429,36.6937871" id="Stroke-12" stroke="#555554" stroke-width="2" stroke-linecap="round" stroke-linejoin="round"></path>
                    <path d="M44.2117286,48.5532624 C42.8308714,47.1708861 40.5911571,47.1715297 39.2115857,48.5526188 L35.1982286,52.569104 L35.1982286,26.8664307 C35.1982286,24.9119257 33.6155143,23.3268267 31.6625143,23.3268267 C29.7101571,23.3268267 28.1268,24.9119257 28.1268,26.8664307 L28.1268,52.569104 L24.1147286,48.5532624 C22.7351571,47.1708861 20.4948,47.1708861 19.1152286,48.5532624 C17.7337286,49.934995 17.7337286,52.1765297 19.1152286,53.5582624 L29.1630857,63.6171733 C29.8528714,64.3083614 30.7573714,64.654599 31.6625143,64.654599 C32.5676571,64.654599 33.4728,64.3083614 34.1625857,63.6178168 L44.2110857,53.5589059 C45.5919429,52.1765297 45.5919429,49.934995 44.2117286,48.5532624" id="Fill-14" fill="#008D94"></path>
                    <path d="M29.1629571,63.617302 C29.8527429,64.3084901 30.7572429,64.6540842 31.6630286,64.6540842 C32.5675286,64.6540842 33.4726714,64.3084901 34.1624571,63.6179455 L44.2109571,53.5590347 C45.5924571,52.1766584 45.5924571,49.9351238 44.2116,48.5533911 C42.8307429,47.1703713 40.5910286,47.1710149 39.2114571,48.5527475 L35.1987429,52.5692327 L35.1987429,37.4776485" id="Stroke-16" stroke="#555554" stroke-width="2" stroke-linecap="round" stroke-linejoin="round"></path>
                    <path d="M35.19855,30.383896 L35.19855,26.8661733 C35.19855,24.9116683 33.6151929,23.3265693 31.6628357,23.3265693 C29.7104786,23.3265693 28.1271214,24.9116683 28.1271214,26.8661733 L28.1271214,52.5694901 L24.11505,48.553005 C22.7348357,47.1706287 20.4951214,47.1706287 19.1149071,48.553005 C17.73405,49.9353812 17.73405,52.1762723 19.1149071,53.5586485 L25.3319786,59.7825594" id="Stroke-18" stroke="#555554" stroke-width="2" stroke-linecap="round" stroke-linejoin="round"></path>
                </g>
            </g>
        </g>
    </g>
</svg>