<svg xmlns="http://www.w3.org/2000/svg" width="144" height="147" viewBox="0 0 144 147">
    <g fill="none" fill-rule="evenodd">
        <path fill="#CDFFFF" d="M59.407 140.32L7.137 88.056c-6.85-6.85-6.85-17.955 0-24.804l52.27-52.267c6.849-6.85 17.955-6.85 24.805 0l52.269 52.267c6.85 6.849 6.85 17.954 0 24.804L84.212 140.32c-6.85 6.85-17.956 6.85-24.805 0"/>
        <path stroke="#555554" stroke-linecap="round" stroke-linejoin="round" stroke-width="3" d="M59.407 140.32L7.137 88.056c-6.85-6.85-6.85-17.955 0-24.804l52.27-52.267c6.849-6.85 17.955-6.85 24.805 0l52.269 52.267c6.85 6.849 6.85 17.954 0 24.804L84.212 140.32c-6.85 6.85-17.956 6.85-24.805 0z"/>
        <path fill="#F9F8C6" d="M110.544 102.275H33.075V2.479h47.73l29.739 29.737z"/>
        <path fill="#D4D3A8" d="M80.805 2.478v29.737h29.739z"/>
        <path fill="#555554" d="M91.826 48.932H51.793a3.089 3.089 0 1 1 0-6.177h40.033a3.089 3.089 0 0 1 0 6.177M91.826 65.649H51.793a3.089 3.089 0 1 1 0-6.178h40.033a3.089 3.089 0 0 1 0 6.178M91.826 82.365H51.793a3.089 3.089 0 1 1 0-6.177h40.033a3.089 3.089 0 0 1 0 6.177"/>
        <path stroke="#555554" stroke-linecap="round" stroke-linejoin="round" stroke-width="3" d="M110.654 52.376v49.9h-77.73v-6.38"/>
        <g stroke="#555554" stroke-linecap="round" stroke-linejoin="round" stroke-width="3">
            <path d="M32.923 85.148V2.142h47.891l29.84 29.837v10.985"/>
            <path d="M80.814 11.166V2.142l29.84 29.837h-29.84V18.811z"/>
        </g>
        <path fill="#00FF92" d="M55.37 121.57h4.567V96.455H55.37zM79.343 128.42v-6.85l-15.982.001V96.46l15.982-.001v-6.849l17.123 19.405z"/>
        <path stroke="#555554" stroke-linecap="round" stroke-linejoin="round" stroke-width="3" d="M59.937 103.783v17.787H55.37V96.455h4.567v4.314M88.702 117.812l-9.36 10.607v-6.85l-15.981.002v-2.26M63.36 114.203V96.459l15.983-.001v-6.849l17.123 19.405-5.014 5.682"/>
    </g>
</svg>
