<?xml version="1.0" encoding="UTF-8" standalone="no"?>
<svg width="75px" height="30px" viewBox="0 0 75 30" version="1.1" xmlns="http://www.w3.org/2000/svg" xmlns:xlink="http://www.w3.org/1999/xlink">
    <!-- Generator: Sketch 46 (44423) - http://www.bohemiancoding.com/sketch -->
    <title>Logo app color</title>
    <desc>Created with Sketch.</desc>
    <defs>
        <polygon id="path-1" points="8.82473348 6.77735929 8.82473348 13.4328358 0.101385928 13.4328358 0.101385928 0.121882755 8.82473348 0.121882755 8.82473348 6.77735929"></polygon>
        <polygon id="path-3" points="0 29.1044776 75 29.1044776 75 0 0 0"></polygon>
    </defs>
    <g id="7--Movile-web" stroke="none" stroke-width="1" fill="none" fill-rule="evenodd">
        <g id="7.1-Clientes" transform="translate(-123.000000, -22.000000)">
            <g id="Logo-app-color" transform="translate(123.000000, 22.000000)">
                <path d="M24.7174438,19.2392259 L28.023059,19.2392259 L28.023059,18.2315263 C28.023059,17.7141819 27.8003472,17.3969824 27.3550858,17.279473 C27.1208488,17.2154873 26.7655162,17.1848591 26.2889259,17.1875883 C25.8121732,17.1901659 25.4310308,17.2662817 25.1456609,17.4156323 C24.8599664,17.5648313 24.7174438,17.8501895 24.7174438,18.2714036 L24.7174438,19.2392259 Z M24.7689013,24.4866631 C24.3119524,24.396143 23.9009419,24.2442147 23.5355452,24.0308784 C22.7705007,23.593592 22.3880597,22.8363768 22.3880597,21.7590814 L22.3880597,18.4074112 C22.3880597,17.5434521 22.7391717,16.8716019 23.4413958,16.3917088 C24.1436199,15.9116641 25.0998849,15.6716418 26.310353,15.6716418 C28.9192632,15.6716418 30.2238806,16.610352 30.2238806,18.4873176 L30.2238806,20.5671574 L24.7174438,20.5671574 L24.7174438,21.9669592 C24.7174438,22.441697 24.8429221,22.752225 25.0942034,22.8989979 C25.3454847,23.0456193 25.7707799,23.1188542 26.3702514,23.1188542 C26.9697229,23.1188542 27.3235945,23.0921682 27.4320285,23.0389478 C27.6889912,22.9056694 27.8545642,22.7443405 27.9289097,22.5549609 C28.0029305,22.3657329 28.0457847,22.1164614 28.0573099,21.8071465 L30.2154396,21.8071465 C30.1811887,23.1296195 29.681548,23.9668927 28.7166798,24.3188142 C28.1514592,24.5213852 27.4664417,24.6240353 26.661465,24.6267645 C25.8564883,24.6293422 25.2255255,24.5826417 24.7689013,24.4866631 Z" id="Fill-1" fill="#9B9B9B"></path>
                <path d="M36.9165126,18.4747154 C36.9165126,17.7197328 36.3925688,17.3420871 35.344366,17.3420871 C34.8951587,17.3420871 34.4930953,17.4576204 34.1381759,17.6883782 C33.7832564,17.9192904 33.6058755,18.2357714 33.6058755,18.6378213 L33.6058755,24.6268657 L31.3432836,24.6268657 L31.3432836,15.8753697 L33.6058755,15.8753697 L33.6058755,16.6495049 C34.3655387,15.9975447 35.2529163,15.6716418 36.2676927,15.6716418 C37.2824691,15.6716418 38.0214773,15.9271126 38.484402,16.4377452 C38.9474844,16.9482234 39.1791045,17.5865914 39.1791045,18.3525404 L39.1791045,24.6268657 L36.9165126,24.6268657 L36.9165126,18.4747154 Z" id="Fill-3" fill="#9B9B9B"></path>
                <path d="M43.7472946,19.2392259 L47.0529098,19.2392259 L47.0529098,18.2315263 C47.0529098,17.7141819 46.8303602,17.3969824 46.3849365,17.279473 C46.1506995,17.2154873 45.795367,17.1848591 45.3187766,17.1875883 C44.8420239,17.1901659 44.4608815,17.2662817 44.1755117,17.4156323 C43.8899795,17.5648313 43.7472946,17.8501895 43.7472946,18.2714036 L43.7472946,19.2392259 Z M43.7985897,24.4866631 C43.3418032,24.396143 42.9307927,24.2442147 42.5655582,24.0308784 C41.8003515,23.593592 41.4179104,22.8363768 41.4179104,21.7590814 L41.4179104,18.4074112 C41.4179104,17.5434521 41.7690225,16.8716019 42.4714089,16.3917088 C43.1734707,15.9116641 44.1297356,15.6716418 45.3402037,15.6716418 C47.9491139,15.6716418 49.2537313,16.610352 49.2537313,18.4873176 L49.2537313,20.5671574 L43.7472946,20.5671574 L43.7472946,21.9669592 C43.7472946,22.441697 43.8727729,22.752225 44.1240542,22.8989979 C44.3753355,23.0456193 44.8006307,23.1188542 45.4001022,23.1188542 C45.9995736,23.1188542 46.3534452,23.0921682 46.4620416,23.0389478 C46.7190043,22.9056694 46.8844149,22.7443405 46.9585981,22.5549609 C47.0327813,22.3657329 47.0756355,22.1164614 47.0871606,21.8071465 L49.245128,21.8071465 C49.2110395,23.1296195 48.7113988,23.9668927 47.7465305,24.3188142 C47.18131,24.5213852 46.4962925,24.6240353 45.6913158,24.6267645 C44.886339,24.6293422 44.2553763,24.5826417 43.7985897,24.4866631 L43.7985897,24.4866631 Z" id="Fill-5" fill="#9B9B9B"></path>
                <path d="M51.4925373,24.6268657 L51.4925373,15.8112049 L53.8311456,15.8112049 L53.8311456,16.861896 C53.9686917,16.610309 54.2551915,16.3857943 54.6908083,16.1888189 C55.4416075,15.8440342 56.1666575,15.6716418 56.8661214,15.6716418 C56.9463023,15.6716418 57.0207792,15.6744424 57.0895522,15.679888 L57.038054,17.5760486 C56.0118368,17.6252146 55.1606485,17.8086538 54.4844892,18.1258993 C54.1062377,18.3010923 53.8883478,18.4980677 53.8311456,18.7169811 L53.8311456,24.6268657 L51.4925373,24.6268657 Z" id="Fill-7" fill="#9B9B9B"></path>
                <path d="M60.9779952,23.3924597 C61.7209581,23.3924597 62.2771081,23.2527344 62.6458096,22.9732837 L62.6458096,17.9862151 C62.6458096,17.8464898 62.4866373,17.7009701 62.1681338,17.5494907 C61.8440704,17.403971 61.4307308,17.331294 60.9277971,17.331294 C59.8885703,17.331294 59.3689569,17.7678529 59.3689569,18.6413017 L59.3689569,22.1435404 C59.3689569,22.9762636 59.9054089,23.3924597 60.9779952,23.3924597 M60.8607605,29.1044776 C59.5367074,29.1044776 58.5448192,28.9414095 57.8855726,28.615439 L58.354988,26.9994923 C59.1985059,27.2441772 59.9765758,27.3665196 60.6888798,27.3665196 C61.4013427,27.3665196 61.9053883,27.2191789 62.2016521,26.9253253 C62.4977571,26.6311406 62.6458096,26.1611403 62.6458096,25.5148279 L62.6458096,24.4842708 C62.1204774,24.8102414 61.3762436,24.9733094 60.4124728,24.9733094 C59.4487019,24.9733094 58.6537935,24.715546 58.0280652,24.2003502 C57.4023369,23.6851545 57.0895522,22.9704693 57.0895522,22.0562948 L57.0895522,18.693616 C57.0895522,17.8496352 57.3535686,17.134619 57.8814424,16.5495606 C58.4094751,15.9643366 59.2879411,15.6716418 60.517158,15.6716418 C60.9919744,15.6716418 61.4571006,15.7547486 61.9125368,15.920631 C62.3678141,16.086679 62.7435052,16.2949426 63.039769,16.5452562 L63.2324597,15.8638469 L64.9253731,15.8638469 L64.9253731,25.3575541 C64.9253731,27.8555583 63.5705022,29.1044776 60.8607605,29.1044776" id="Fill-9" fill="#9B9B9B"></path>
                <g id="Group-13" transform="translate(66.044776, 15.671642)">
                    <mask id="mask-2" fill="white">
                        <use xlink:href="#path-1"></use>
                    </mask>
                    <g id="Clip-12"></g>
                    <path d="M1.07158849,13.432852 L0.902878465,11.5117946 C1.70708955,11.3523809 2.2934968,11.0406743 2.6619403,10.5768369 C3.03022388,10.1128376 3.31279318,9.58215968 3.5098081,8.98447941 L0.101385928,0.121882755 L2.31172708,0.121882755 L4.66551173,6.27784391 L6.54690832,0.121882755 L8.82473348,0.121882755 L6.07452026,8.09645567 C5.6021322,9.46822334 5.17180171,10.454323 4.7836887,11.0549164 C4.39573561,11.6555098 4.03560768,12.0923197 3.70378465,12.365508 C2.99520256,12.9460331 2.11775053,13.3017605 1.07158849,13.432852" id="Fill-11" fill="#9B9B9B" mask="url(#mask-2)"></path>
                </g>
                <path d="M25.7098048,10.7015331 C26.6463138,10.7015331 27.1145683,10.358429 27.1145683,9.67206328 L27.1145683,6.7640275 C27.1145683,6.08648352 26.6682094,5.74794783 25.7756639,5.74794783 C25.4780912,5.74794783 25.2024141,5.79237178 24.948805,5.88153474 C24.6951959,5.97085523 24.5050321,6.07325086 24.3781414,6.18903668 L24.3781414,10.3874149 C24.8074322,10.5969321 25.2513774,10.7015331 25.7098048,10.7015331 L25.7098048,10.7015331 Z M22.3880597,14.5522388 L22.3880597,4.63136291 L23.7781687,4.63136291 L23.9757459,5.09923216 C24.5952004,4.6849237 25.3403389,4.47761194 26.2109888,4.47761194 C27.0816388,4.47761194 27.7816069,4.68823187 28.3108931,5.10931419 C28.8400069,5.53055404 29.1044776,6.09105194 29.1044776,6.7908079 L29.1044776,9.63189268 C29.1044776,10.273677 28.836214,10.8229901 28.2996867,11.2798321 C27.7631595,11.7366742 26.9561273,11.9650952 25.878073,11.9650952 C25.3172365,11.9650952 24.8172593,11.8759322 24.3781414,11.6976063 L24.3781414,14.5522388 L22.3880597,14.5522388 Z" id="Fill-14" fill="#9B9B9B"></path>
                <path d="M32.0850391,10.0956824 C32.0850391,10.6972711 32.4052924,10.9983127 33.0462843,10.9983127 C33.2980853,10.9983127 33.5638032,10.9305536 33.8431146,10.7953652 C34.1222641,10.6601767 34.3420235,10.4689344 34.5023929,10.2216384 L34.5023929,8.34664021 C34.2826334,8.5284852 33.8957079,8.72335445 33.3417782,8.93091822 C32.7876867,9.13831712 32.4397612,9.32972422 32.29784,9.50448006 C32.1559188,9.67940076 32.0850391,9.8765781 32.0850391,10.0956824 M33.7296747,12.0301965 C33.328994,12.2191306 32.8427075,12.3134328 32.2703296,12.3134328 C31.6979518,12.3134328 31.2139308,12.1246636 30.8179431,11.7469601 C30.4217935,11.3690919 30.2238806,10.8863701 30.2238806,10.2984651 C30.2238806,9.71088979 30.4035072,9.23987335 30.7629223,8.88525089 C31.1223374,8.53095816 31.8102589,8.19034914 32.8266867,7.86375357 C33.4446994,7.66327895 33.8785544,7.48374205 34.1280898,7.32514289 C34.3776252,7.16654373 34.5023929,6.94727461 34.5023929,6.66750041 C34.5023929,6.08915751 34.1154674,5.80229415 33.3417782,5.80691035 C32.9067905,5.80691035 32.6069273,5.89198017 32.4421886,6.06228468 C32.2772881,6.23258918 32.1949188,6.47856627 32.1949188,6.80038079 L32.1949188,7.09416843 L30.44364,7.09416843 L30.44364,6.87044799 C30.44364,6.11949248 30.6886443,5.53290638 31.1783292,5.11085455 C31.6683377,4.68863786 32.4214749,4.47761194 33.4379028,4.47761194 C34.4541688,4.47761194 35.1925799,4.69688106 35.6526506,5.13525442 C36.1127214,5.57362779 36.3428377,6.20340826 36.3428377,7.0242661 L36.3428377,9.99775314 C36.3428377,10.3334162 36.3839414,10.5551583 36.4664726,10.6624848 C36.5488419,10.7698112 36.7067839,10.8232272 36.9402985,10.8232272 L36.8647259,12.2085793 L36.4732693,12.2085793 C35.9651363,12.2085793 35.5689867,12.137523 35.2851442,11.9950805 C35.0013018,11.8529677 34.7907664,11.6279283 34.6533763,11.3201273 C34.438148,11.6045177 34.1303554,11.8412623 33.7296747,12.0301965" id="Fill-16" fill="#9B9B9B"></path>
                <path d="M40.9688617,12.3134328 C39.6533985,12.3134328 38.8037944,11.987167 38.4200493,11.3341407 C38.1798174,10.9328617 38.0597015,10.4432157 38.0597015,9.86470789 L38.0597015,6.85626968 C38.0597015,6.10547904 38.3063415,5.52120104 38.7996216,5.1037654 C39.2929017,4.68632976 39.9949688,4.47761194 40.9056741,4.47761194 C41.8163794,4.47761194 42.5025007,4.67693251 42.964187,5.07573852 C43.4258733,5.47454453 43.6567164,6.20324339 43.6567164,7.26199998 L42.0376848,7.40196951 C42.0376848,6.7256974 41.9637673,6.28963213 41.8163794,6.09360884 C41.7277082,5.9724338 41.6180242,5.89329908 41.4874763,5.85587495 C41.3609522,5.82323188 41.1417332,5.80691035 40.8296702,5.80691035 C40.1298385,5.80691035 39.7797736,6.15905984 39.7797736,6.86319397 L39.7797736,9.89965906 C39.7797736,10.2915408 39.8715743,10.5691718 40.0550268,10.7322222 C40.2383303,10.8956025 40.5103049,10.9772101 40.8708018,10.9772101 C41.2312986,10.9772101 41.4852409,10.9411049 41.6329269,10.8687296 C41.7804638,10.7965192 41.8859751,10.6588578 41.9491626,10.4559102 C42.0123502,10.2531275 42.043944,9.932467 42.043944,9.49392877 L43.6503082,9.49392877 C43.6419627,10.0444097 43.5954662,10.4921803 43.5112659,10.8372406 C43.4267674,11.1730686 43.2792305,11.4577887 43.068506,11.6909064 C42.6890827,12.1014177 41.9891019,12.3088166 40.9688617,12.3134328" id="Fill-18" fill="#9B9B9B"></path>
                <mask id="mask-4" fill="white">
                    <use xlink:href="#path-3"></use>
                </mask>
                <g id="Clip-21"></g>
                <path d="M45.8955224,11.1940299 L48.1343284,11.1940299 L48.1343284,3.82318786 L45.8955224,3.82318786 L45.8955224,11.1940299 Z M45.8955224,2.77346793 L48.1343284,2.77346793 L48.1343284,1.11940299 L45.8955224,1.11940299 L45.8955224,2.77346793 Z" id="Fill-20" fill="#9B9B9B" mask="url(#mask-4)"></path>
                <polygon id="Fill-22" fill="#ADD44C" mask="url(#mask-4)" points="5.59701493 8.95522388 8.95522388 8.95522388 8.95522388 5.59701493 5.59701493 5.59701493"></polygon>
                <polygon id="Fill-23" fill="#ADD44C" mask="url(#mask-4)" points="5.59701493 21.2686567 8.95522388 21.2686567 8.95522388 17.9104478 5.59701493 17.9104478"></polygon>
                <path d="M3.69979393,12.1185811 L11.9718479,12.1185811 L11.9718479,3.7450299 L3.69979393,3.7450299 L3.69979393,12.1185811 Z M0,0 L0,27.9825124 L15.6716418,27.9850746 L15.6716418,27.9825124 L15.6716418,18.1779517 L11.9718479,18.1779517 L11.9718479,24.2371622 L3.69979393,24.2371622 L3.69979393,15.8637711 L15.6716418,15.8637711 L15.6716418,0 L0,0 Z" id="Fill-24" fill="#ADD44C" mask="url(#mask-4)"></path>
            </g>
        </g>
    </g>
</svg>