<svg xmlns="http://www.w3.org/2000/svg" xmlns:xlink="http://www.w3.org/1999/xlink" width="106" height="41" viewBox="0 0 106 41">
    <defs>
        <path id="a" d="M12.116.068V18.31H.025V.068h12.091z"/>
        <path id="c" d="M0 40.121h104.88V0H0z"/>
    </defs>
    <g fill="none" fill-rule="evenodd">
        <path fill="#FFF" d="M34.017 26.829h4.513v-1.474c0-.757-.304-1.221-.912-1.393-.32-.093-.805-.138-1.456-.134-.65.004-1.171.115-1.56.333-.39.219-.585.636-.585 1.252v1.416zm.07 7.676a5.172 5.172 0 0 1-1.684-.667c-1.045-.64-1.567-1.748-1.567-3.323v-4.903c0-1.264.48-2.246 1.438-2.948.96-.703 2.265-1.054 3.918-1.054 3.562 0 5.343 1.373 5.343 4.12v3.041h-7.518v2.048c0 .694.171 1.149.514 1.363.343.215.924.322 1.742.322.819 0 1.302-.04 1.45-.117.351-.195.577-.431.679-.708.1-.277.16-.642.175-1.094h2.947c-.047 1.935-.73 3.16-2.047 3.674-.771.296-1.707.446-2.806.45-1.1.004-1.96-.064-2.584-.204zM52.048 25.612c0-1.084-.736-1.626-2.21-1.626-.631 0-1.197.166-1.695.497-.5.332-.749.786-.749 1.363v8.6h-3.18V21.88h3.18v1.111c1.068-.936 2.316-1.404 3.742-1.404 1.427 0 2.465.367 3.116 1.1.651.733.977 1.65.977 2.75v9.01h-3.18v-8.835zM61.158 26.829h4.513v-1.474c0-.757-.304-1.221-.912-1.393-.32-.093-.805-.138-1.456-.134-.65.004-1.17.115-1.56.333-.39.219-.585.636-.585 1.252v1.416zm.07 7.676a5.172 5.172 0 0 1-1.684-.667c-1.045-.64-1.567-1.748-1.567-3.323v-4.903c0-1.264.48-2.246 1.439-2.948.958-.703 2.264-1.054 3.917-1.054 3.562 0 5.344 1.373 5.344 4.12v3.041h-7.52v2.048c0 .694.172 1.149.515 1.363.343.215.924.322 1.743.322.818 0 1.301-.04 1.45-.117.35-.195.576-.431.678-.708.1-.277.16-.642.175-1.094h2.947c-.047 1.935-.73 3.16-2.046 3.674-.772.296-1.708.446-2.807.45-1.099.004-1.96-.064-2.584-.204zM71.355 34.446V21.88h3.18v1.497c.188-.358.577-.678 1.17-.96 1.02-.49 2.007-.736 2.958-.736.11 0 .21.004.304.011l-.07 2.703c-1.396.07-2.553.332-3.473.784-.514.25-.81.53-.889.843v8.424h-3.18zM85.598 31.954c1.036 0 1.812-.187 2.327-.562v-6.68c0-.188-.223-.383-.667-.586-.452-.195-1.029-.292-1.73-.292-1.45 0-2.175.585-2.175 1.755v4.692c0 1.115.748 1.673 2.245 1.673m-.164 7.652c-1.848 0-3.231-.218-4.151-.655l.655-2.165c1.177.328 2.262.492 3.256.492.994 0 1.698-.197 2.11-.591.414-.394.62-1.024.62-1.89v-1.38c-.732.436-1.77.655-3.116.655-1.344 0-2.453-.345-3.326-1.036-.873-.69-1.31-1.648-1.31-2.872v-4.505c0-1.131.368-2.089 1.105-2.873.737-.784 1.963-1.176 3.678-1.176.662 0 1.311.112 1.947.334.635.222 1.159.501 1.572.837l.27-.913h2.361v12.719c0 3.346-1.89 5.02-5.671 5.02"/>
        <g transform="translate(92.764 21.811)">
            <mask id="b" fill="#fff">
                <use xlink:href="#a"/>
            </mask>
            <path fill="#FFF" d="M1.37 18.31l-.234-2.633c1.115-.219 1.927-.646 2.438-1.281a6.971 6.971 0 0 0 1.175-2.183L.025.068H3.09L6.35 8.504 8.96.068h3.157L8.304 10.997c-.655 1.88-1.251 3.23-1.79 4.054-.537.823-1.036 1.421-1.496 1.796-.982.796-2.198 1.283-3.648 1.463" mask="url(#b)"/>
        </g>
        <path fill="#FFF" d="M35.245 14.343c1.204 0 1.806-.483 1.806-1.45V8.8c0-.954-.574-1.43-1.722-1.43-.382 0-.737.062-1.063.187-.326.126-.57.27-.733.433v5.911a3.586 3.586 0 0 0 1.712.442zm-4.27 5.422V5.797h1.786l.254.66c.797-.585 1.755-.876 2.874-.876 1.12 0 2.02.296 2.7.89.68.592 1.02 1.381 1.02 2.366v4c0 .904-.345 1.677-1.035 2.32-.69.644-1.727.965-3.113.965-.721 0-1.364-.125-1.928-.376v4.019h-2.559zM44.763 13.139c0 .809.44 1.214 1.317 1.214.345 0 .709-.091 1.091-.273.383-.182.684-.44.903-.772v-2.522c-.3.244-.83.506-1.59.785-.758.28-1.235.537-1.43.772-.194.236-.29.5-.29.796m2.252 2.602c-.549.254-1.215.381-1.999.381s-1.447-.254-1.99-.762c-.542-.508-.813-1.158-.813-1.948 0-.791.246-1.425.739-1.902.492-.476 1.434-.935 2.826-1.374.847-.27 1.44-.511 1.783-.725.341-.213.512-.508.512-.884 0-.778-.53-1.164-1.59-1.158-.595 0-1.006.115-1.232.344-.225.229-.338.56-.338.993V9.1h-2.399V8.8c0-1.01.336-1.8 1.007-2.367.67-.568 1.702-.852 3.094-.852s2.404.295 3.034.884c.63.59.945 1.437.945 2.542v4c0 .452.057.75.17.894.112.144.329.216.648.216l-.103 1.864h-.536c-.696 0-1.239-.096-1.627-.287a1.81 1.81 0 0 1-.866-.908c-.295.383-.716.7-1.265.955M58.082 16.122c-1.956 0-3.22-.439-3.79-1.317-.358-.54-.537-1.199-.537-1.977V8.781c0-1.01.367-1.796 1.1-2.358.734-.561 1.779-.842 3.133-.842s2.375.268 3.062.804c.686.537 1.03 1.517 1.03 2.942l-2.408.188c0-.91-.11-1.497-.33-1.76a.908.908 0 0 0-.489-.32c-.188-.044-.514-.066-.978-.066-1.04 0-1.561.474-1.561 1.421v4.085c0 .527.136.9.409 1.12.273.22.677.33 1.213.33s.914-.049 1.134-.146c.22-.098.376-.283.47-.556.094-.273.141-.704.141-1.294h2.39c-.013.74-.082 1.343-.208 1.807a2.564 2.564 0 0 1-.658 1.149c-.564.552-1.606.831-3.123.837"/>
        <mask id="d" fill="#fff">
            <use xlink:href="#c"/>
        </mask>
        <path fill="#FFF" d="M64.948 15.906h2.559V5.797h-2.559v10.109zm0-11.549h2.559V2.09h-2.559v2.268zM8.387 13.579h5.183V8.392H8.387zM8.387 30.363h5.183v-5.187H8.387z" mask="url(#d)"/>
        <path fill="#FFF" d="M5.184 16.784h11.59V5.187H5.183v11.597zM0 0v38.755l21.957.004V25.175h-5.184v8.393H5.183V21.971h16.774V0H0z" mask="url(#d)"/>
    </g>
</svg>
