<?xml version="1.0" encoding="UTF-8" standalone="no"?>
<svg width="40px" height="40px" viewBox="0 0 40 40" version="1.1" xmlns="http://www.w3.org/2000/svg" xmlns:xlink="http://www.w3.org/1999/xlink">
    <!-- Generator: sketchtool 46 (44423) - http://www.bohemiancoding.com/sketch -->
    <title>7B859BE6-B5D7-4813-94E9-CA5F4EF9FCA1</title>
    <desc>Created with sketchtool.</desc>
    <defs></defs>
    <g id="6--App-movil" stroke="none" stroke-width="1" fill="none" fill-rule="evenodd">
        <g id="6.2-Auditorias" transform="translate(-53.000000, -428.000000)">
            <g id="Recargar" transform="translate(53.000000, 428.000000)">
                <circle id="Oval-2" fill="#008D95" cx="20" cy="20" r="20"></circle>
                <g id="001-refresh-button" transform="translate(9.000000, 8.000000)" fill-rule="nonzero" fill="#FFFFFF">
                    <path d="M1.93674603,11 C2.70945455,11 3.4074278,10.4919736 3.70631959,9.71148737 C4.94041364,6.49188032 7.84226368,4.22285787 11.2252313,4.22285787 C13.0897656,4.22285787 14.7991563,4.92264328 16.169599,6.08329855 L15.0954335,6.2653886 C14.7285154,6.32766977 14.4430908,6.64642189 14.3933659,7.0492779 C14.3435424,7.45191784 14.5417512,7.84256608 14.8801071,8.00904533 L20.7872034,10.9190291 C21.0461377,11.0463463 21.3461147,11.0218767 21.5847743,10.853939 C21.8230393,10.6857313 21.9677741,10.3970664 21.9693527,10.0864708 L21.9999868,2.95935494 C22.0020586,2.55390614 21.7606859,2.19534377 21.4068402,2.07715539 C21.0524026,1.95896701 20.6695015,2.10897118 20.4644358,2.44646707 L19.6502405,3.78634951 C17.4794643,1.44645725 14.5049508,0 11.2252313,0 C6.25230144,0 1.9767035,3.32537161 0.153162682,8.05171847 C-0.100098654,8.70683212 -0.0362653529,9.45696102 0.322315998,10.0496315 C0.680897349,10.642518 1.28701773,11 1.93674603,11 Z" id="Shape"></path>
                    <path d="M22.6777615,14.9503732 C22.3191312,14.3574298 21.7129621,14 21.0632837,14 C20.290576,14 19.5926034,14.5080289 19.2937119,15.288519 C18.0595697,18.5081418 15.1577225,20.7771754 11.7748075,20.7771754 C9.91022574,20.7771754 8.20083672,20.0773866 6.83034595,18.9167256 L7.90455972,18.7347427 C8.27142819,18.6724612 8.55685255,18.3536535 8.60667602,17.9507415 C8.65645016,17.5481536 8.45829087,17.1574494 8.11993524,16.9909694 L2.21284478,14.0809713 C1.95386139,13.9537075 1.65393396,13.9780691 1.41522527,14.1460617 C1.17700989,14.3142703 1.03222584,14.6029366 1.0306966,14.9134797 L1.00001324,22.0406305 C0.99794137,22.4460813 1.23926456,22.8046455 1.59315919,22.9228344 C1.94759646,23.0410234 2.33054656,22.8909644 2.53556275,22.5534129 L3.34975719,21.2135239 C5.52048196,23.5535357 8.49504185,25 11.7747582,25 C16.7477819,25 21.0232276,21.6746661 22.8467173,16.948296 C23.1001264,16.2931791 23.0362932,15.5431006 22.6777615,14.9503732 Z" id="Shape"></path>
                </g>
            </g>
        </g>
    </g>
</svg>