<?xml version="1.0" encoding="UTF-8" standalone="no"?>
<svg width="30px" height="25px" viewBox="0 0 30 25" version="1.1" xmlns="http://www.w3.org/2000/svg" xmlns:xlink="http://www.w3.org/1999/xlink">
    <!-- Generator: sketchtool 46 (44423) - http://www.bohemiancoding.com/sketch -->
    <title>77691002-B8F9-4A68-9C2A-2301235581F5</title>
    <desc>Created with sketchtool.</desc>
    <defs>
        <polygon id="path-1" points="0 24.9777162 29.9889385 24.9777162 29.9889385 0 0 0"></polygon>
    </defs>
    <g id="6--App-movil" stroke="none" stroke-width="1" fill="none" fill-rule="evenodd">
        <g id="6.2-Auditorias" transform="translate(-276.000000, -19.000000)">
            <g id="Usuario" transform="translate(276.000000, 19.000000)">
                <path d="M11.2833352,2.44294346 C8.46065363,2.44294346 6.16422905,4.72149113 6.16422905,7.52232262 C6.16422905,10.3230987 8.46065363,12.6017018 11.2833352,12.6017018 C14.1060168,12.6017018 16.4024413,10.3230987 16.4024413,7.52232262 C16.4024413,4.72149113 14.1060168,2.44294346 11.2833352,2.44294346 Z M11.2833352,13.7103492 C7.84456425,13.7103492 5.04691061,10.9344069 5.04691061,7.52232262 C5.04691061,4.11023836 7.84456425,1.33429601 11.2833352,1.33429601 C14.7221061,1.33429601 17.5197598,4.11023836 17.5197598,7.52232262 C17.5197598,10.9344069 14.7221061,13.7103492 11.2833352,13.7103492 Z" id="Fill-1" fill="#008D95"></path>
                <path d="M1.11731844,23.8690687 L21.4492737,23.8690687 L21.4492737,18.4973947 C20.4035754,17.9720621 16.5124581,16.2141907 11.283352,16.2141907 C6.04027933,16.2141907 2.16100559,17.970898 1.11731844,18.4968958 L1.11731844,23.8690687 Z M22.5665922,24.9777162 L0,24.9777162 L0,17.8437916 L0.279217877,17.6837583 C0.462905028,17.5784922 4.85189944,15.1055432 11.283352,15.1055432 C17.7147486,15.1055432 22.1036872,17.5784922 22.2873743,17.6837583 L22.5665922,17.8437916 L22.5665922,24.9777162 Z" id="Fill-3" fill="#008D95"></path>
                <mask id="mask-2" fill="white">
                    <use xlink:href="#path-1"></use>
                </mask>
                <g id="Clip-6"></g>
                <polygon id="Fill-5" fill="#008D95" mask="url(#mask-2)" points="20.0307263 1.10864745 29.9889385 1.10864745 29.9889385 0 20.0307263 0"></polygon>
                <polygon id="Fill-7" fill="#008D95" mask="url(#mask-2)" points="20.0307263 4.48508869 29.9889385 4.48508869 29.9889385 3.37644124 20.0307263 3.37644124"></polygon>
                <polygon id="Fill-8" fill="#008D95" mask="url(#mask-2)" points="20.0307263 7.86158537 29.9889385 7.86158537 29.9889385 6.75293792 20.0307263 6.75293792"></polygon>
            </g>
        </g>
    </g>
</svg>